# xmcd
#
# Track frame offsets: 
#        150
#        12312
#        26375
#        46212
#        58820
#        74102
#        98912
#        111712
#        129382
#        147807
#
# Disc length: 2269 seconds
#
# Revision: 0
# Processed by: cddbd v1.5.1PL0 Copyright (c) Steve Scherf et al.
# Submitted via: ExactAudioCopy v0.95a5
#
DISCID=9208db0a
DTITLE=Boogie Boy Ikuto And The HouseRockers - 
DYEAR=1992
DGENRE=Blues
TTITLE0=Dust my broom
TTITLE1=Hawaiian boogie
TTITLE2=She's gone
TTITLE3=44 blues
TTITLE4=Talk to my baby
TTITLE5=Blue guiter
TTITLE6=Take five
TTITLE7=Wild about you baby
TTITLE8=Roll your money maker
TTITLE9=I held my baby last night
EXTD=
EXTT0=
EXTT1=
EXTT2=
EXTT3=
EXTT4=
EXTT5=
EXTT6=
EXTT7=
EXTT8=
EXTT9=
PLAYORDER=
